<?xml version="1.0" encoding="UTF-8" standalone="no"?>
<svg
   aria-hidden="true"
   role="img"
   class="iconify iconify--logos"
   width="31.88"
   height="32"
   preserveAspectRatio="xMidYMid meet"
   viewBox="0 0 256 257"
   version="1.1"
   id="svg6"
   sodipodi:docname="vite.svg"
   inkscape:version="1.3.2 (091e20e, 2023-11-25, custom)"
   xmlns:inkscape="http://www.inkscape.org/namespaces/inkscape"
   xmlns:sodipodi="http://sodipodi.sourceforge.net/DTD/sodipodi-0.dtd"
   xmlns="http://www.w3.org/2000/svg"
   xmlns:svg="http://www.w3.org/2000/svg">
  <sodipodi:namedview
     id="namedview6"
     pagecolor="#505050"
     bordercolor="#eeeeee"
     borderopacity="1"
     inkscape:showpageshadow="0"
     inkscape:pageopacity="0"
     inkscape:pagecheckerboard="0"
     inkscape:deskcolor="#505050"
     inkscape:zoom="15.90625"
     inkscape:cx="15.937132"
     inkscape:cy="16"
     inkscape:window-width="1366"
     inkscape:window-height="705"
     inkscape:window-x="262"
     inkscape:window-y="892"
     inkscape:window-maximized="1"
     inkscape:current-layer="svg6" />
  <defs
     id="defs5">
    <linearGradient
       id="IconifyId1813088fe1fbc01fb466"
       x1="-.828%"
       x2="57.636%"
       y1="7.652%"
       y2="78.411%">
      <stop
         offset="0%"
         stop-color="#41D1FF"
         id="stop1" />
      <stop
         offset="100%"
         stop-color="#BD34FE"
         id="stop2" />
    </linearGradient>
    <linearGradient
       id="IconifyId1813088fe1fbc01fb467"
       x1="188.00649"
       x2="199.00609"
       y1="3.5533929"
       y2="141.10861"
       gradientTransform="matrix(0.74063538,0,0,1.3501921,-119.66405,83.815324)"
       gradientUnits="userSpaceOnUse">
      <stop
         offset="0%"
         stop-color="#FFEA83"
         id="stop3" />
      <stop
         offset="8.333%"
         stop-color="#FFDD35"
         id="stop4" />
      <stop
         offset="100%"
         stop-color="#FFA800"
         id="stop5" />
    </linearGradient>
  </defs>
  <path
     fill="url(#IconifyId1813088fe1fbc01fb466)"
     d="M255.153 37.938L134.897 252.976c-2.483 4.44-8.862 4.466-11.382.048L.875 37.958c-2.746-4.814 1.371-10.646 6.827-9.67l120.385 21.517a6.537 6.537 0 0 0 2.322-.004l117.867-21.483c5.438-.991 9.574 4.796 6.877 9.62Z"
     id="path5" />
  <path
     fill="url(#IconifyId1813088fe1fbc01fb467)"
     d="m 65.767953,83.878324 -88.992,17.437996 a 3.268,3.268 0 0 0 -2.634,3.014 l -5.474,92.456 a 3.268,3.268 0 0 0 3.997,3.378 l 24.7769998,-5.718 c 2.31800005,-0.535 4.413,1.507 3.936,3.838 l -7.361,36.047 c -0.495,2.426 1.782,4.5 4.151,3.78 l 15.3040002,-4.649 c 2.372,-0.72 4.652,1.36 4.15,3.788 l -11.6980002,56.621 c -0.732,3.542 3.979,5.473 5.9430002,2.437 l 1.313,-2.028 72.516,-144.72 c 1.215,-2.423 -0.88,-5.186 -3.54,-4.672 l -25.505,4.922 c -2.396,0.462 -4.435,-1.77 -3.759,-4.114 l 16.646,-57.704996 c 0.677,-2.35 -1.37,-4.583 -3.769,-4.113 z"
     id="path6"
     style="fill:url(#IconifyId1813088fe1fbc01fb467)" />
</svg>
